<svg xmlns="http://www.w3.org/2000/svg" width="256" height="256"><path fill="#1976D2" fill-opacity=".016" fill-rule="evenodd" d="M0 128.004v128.004l128.25-.254 128.25-.254.254-127.75L257.008 0H0zm.485.496c0 70.4.119 99.053.265 63.672.146-35.38.146-92.98 0-128C.604 29.153.485 58.1.485 128.5"/><path fill="#1976D2" fill-opacity=".155" fill-rule="evenodd" d="M60.5 1c-.34.55-1.948 1-3.573 1s-3.736.384-4.691.853c-.955.469-3.311 1.531-5.236 2.36-7.612 3.277-9.67 4.339-14 7.225C27.216 16.292 16.292 27.216 12.438 33c-2.886 4.33-3.948 6.388-7.225 14-.829 1.925-1.891 4.281-2.36 5.236-.469.955-.853 3.066-.853 4.691S1.55 60.16 1 60.5C-.343 61.33-.343 88 1 88c.55 0 1 1.548 1 3.441 0 1.893.45 3.719 1 4.059.55.34 1 1.254 1 2.032 0 4.223 8.55 18.838 15.331 26.205l3.899 4.237-2.865 3.339c-4.595 5.357-8.688 10.758-9.893 13.055-2.832 5.402-3.538 6.764-4.473 8.619-1.833 3.642-3.97 10.485-3.984 12.763C2.007 166.988 1.55 168 1 168c-1.345 0-1.345 27.669 0 28.5.55.34 1 1.604 1.001 2.809.001 2.297 3.061 11.086 4.286 12.312.392.392.713 1.537.713 2.546 0 1.008.45 1.833 1 1.833s1 .472 1 1.048C9 221.043 28.119 243 31.598 243c.636 0 1.689.641 2.339 1.424 1.367 1.647 11.576 6.71 18.683 9.267 7.062 2.539 35.698 2.539 42.76 0 12.158-4.373 21.182-9.569 28.551-16.441 1.917-1.787 3.954-3.238 4.527-3.223.573.014 3.016 1.835 5.428 4.045 8.288 7.594 17.315 12.584 29.114 16.09 6.114 1.818 32.923 1.81 39-.01 6.604-1.978 18.771-8.075 24.5-12.278 9.84-7.217 16.913-15.92 22.654-27.874 4.407-9.177 5.841-13.599 5.861-18.071.012-2.582.255-3.058.985-1.929.648 1.003.941-3.303.885-13-.051-8.796-.399-13.517-.885-12-.794 2.479-.801 2.476-.9-.429-.14-4.111-1.998-9.845-6.179-19.071-2.041-4.503-6.348-10.702-10.849-15.614-2.21-2.412-4.031-4.855-4.045-5.428-.015-.573 1.436-2.61 3.223-4.527 5.137-5.508 8.034-9.872 11.904-17.931 4.407-9.177 5.841-13.599 5.861-18.071.012-2.582.255-3.058.985-1.929.65 1.006.951-3.115.914-12.5-.034-8.74-.377-13.249-.914-12-.705 1.641-.875 1.372-.944-1.5-.14-5.762-7.29-23.289-10.632-26.063-.783-.65-1.424-1.748-1.424-2.44C243 28.112 220.895 9 216.981 9A.993.993 0 0 1 216 8c0-.55-.825-1-1.833-1-1.009 0-2.154-.321-2.546-.713-1.35-1.349-10.126-4.285-12.812-4.286C197.329 2 195.84 1.55 195.5 1c-.821-1.329-26.179-1.329-27 0-.34.55-1.915 1-3.5 1s-3.16.45-3.5 1c-.34.55-1.63 1-2.868 1-1.237 0-3.123.661-4.191 1.468-1.067.808-2.691 1.483-3.608 1.5-.916.018-1.816.383-2 .813-.183.43-1.719 1.442-3.413 2.25-3.08 1.469-7.828 4.947-14.107 10.334l-3.339 2.865-4.237-3.899C116.37 12.55 101.755 4 97.532 4c-.778 0-1.692-.45-2.032-1-.34-.55-2.14-1-4-1-1.86 0-3.66-.45-4-1-.821-1.329-26.179-1.329-27 0m4 14.093c-8.504 1.352-11.503 2.103-12.071 3.022-.301.487-1.229.885-2.063.885-2.496 0-14.532 8.405-19.516 13.627C26.147 37.555 19 48.013 19 49.966c0 .583-.395 1.843-.877 2.798-2.699 5.341-3.507 10.598-3.466 22.536.028 8.255.452 13.209 1.193 13.95.633.633 1.15 2.174 1.15 3.425 0 6.377 14.759 26.6 17.658 24.194 1.912-1.587 1.663-3.615-.756-6.161C30.961 107.613 25 98.22 25 96.681c0-.705-.385-1.708-.855-2.231-3.906-4.337-5.464-24.46-2.63-33.95C27.134 41.686 40.55 28.107 60 21.547c8.753-2.952 30.072-1.345 34.45 2.598.523.47 1.526.855 2.231.855 3.893 0 15.421 10.322 48.076 43.047 30.983 31.049 36.397 36.07 37.71 34.981.843-.7 1.533-1.788 1.533-2.418 0-.629-16.988-18.076-37.75-38.769-32.154-32.048-38.754-38.16-44.525-41.233C97.999 18.624 94.032 17 92.909 17c-1.122 0-2.849-.433-3.837-.961-2.445-1.309-18.42-1.924-24.572-.946m107.5-.071c-9.925 1.943-11.045 2.242-11.571 3.093-.301.487-1.217.885-2.036.885-1.676 0-12.711 6.782-13.226 8.129-.184.479-.746.871-1.25.871-1.378 0-4.917 3.815-4.917 5.3 0 1.372 1.934 3.7 3.074 3.7.37 0 2.617-1.777 4.993-3.948 4.603-4.209 13.296-8.875 21.361-11.468 13.129-4.22 33.532-.477 45.552 8.358 6.084 4.472 7.087 5.452 10.809 10.558 2.005 2.75 3.886 5.225 4.18 5.5.294.275 1.036 1.625 1.649 3 8.632 19.361 8.665 30.779.147 49.75-2.835 6.314-10.411 14.567-45.21 49.25-20.142 20.075-37.282 37.807-38.089 39.404-1.793 3.551-1.919 12.812-.216 15.86 2.229 3.987 12.08 12.721 16.725 14.827 2.489 1.129 5.306 2.47 6.261 2.981 2.353 1.257 23.481 1.195 24.264-.072.34-.55 1.278-1 2.084-1s4.438-1.878 8.073-4.173c5.154-3.255 7.568-5.658 10.975-10.925 2.402-3.714 4.368-7.434 4.368-8.268 0-.834.45-1.794 1-2.134 1.267-.783 1.329-21.911.072-24.264-.511-.955-1.861-3.761-3-6.236-2.085-4.53-7.158-11-8.625-11-.434 0-1.58.716-2.547 1.59-1.66 1.503-1.522 1.905 2.487 7.25 2.334 3.113 4.824 7.397 5.533 9.52 1.496 4.481 1.682 19.554.274 22.28a152.372 152.372 0 0 0-2.327 4.815C211.138 202.191 201.443 212 199.478 212c-.813 0-1.478.45-1.478 1s-.873 1-1.941 1-2.219.45-2.559 1c-.878 1.42-18.307 1.215-22.5-.265-5.544-1.956-10.618-5.494-14.971-10.439-3.525-4.005-4.029-5.186-4.029-9.437 0-2.672.45-4.859 1-4.859s1-.436 1-.969c0-.534 17.247-18.311 38.327-39.506 21.079-21.194 39.277-40.221 40.438-42.28 1.161-2.06 2.852-5.32 3.757-7.245.905-1.925 2.058-4.281 2.562-5.236.504-.955.916-2.841.916-4.191 0-1.35.45-2.733 1-3.073.583-.36 1-5.991 1-13.5s-.417-13.14-1-13.5c-.55-.34-1-1.723-1-3.073 0-1.35-.412-3.236-.916-4.191-.504-.955-1.648-3.311-2.542-5.236-3.271-7.04-5.913-10.635-12.493-17-6.861-6.637-19.166-14-23.398-14-1.238 0-2.678-.424-3.201-.941-1.343-1.331-20.054-2.093-25.45-1.037M66.328 34.676C55.918 35.753 43.047 45.809 37.756 57c-2.811 5.945-3.079 7.409-3.138 17.148-.062 10.046.461 12.709 3.5 17.852.488.825 1.286 2.412 1.775 3.527.488 1.115 2.313 3.552 4.054 5.416 3.129 3.35 3.188 3.367 5.099 1.455 1.911-1.911 1.893-1.99-1.63-6.916-5.824-8.141-6.72-10.99-6.756-21.482-.028-7.971.345-10.284 2.319-14.368 2.579-5.337 10.106-13.415 14.334-15.382 1.478-.687 3.865-1.804 5.304-2.482 1.525-.717 6.431-1.199 11.75-1.153 14.745.127 13.808-.564 55.837 41.218 31.578 31.394 36.919 36.31 38.25 35.206.85-.706 1.546-1.95 1.546-2.764 0-.815-16.088-17.548-35.75-37.186-40.709-40.659-41.94-41.59-56.027-42.401-4.248-.244-9.6-.25-11.895-.012M175 34.638c-5.303.641-12.636 4.117-18.427 8.735-3.876 3.09-4.388 4.705-2.097 6.607 1.206 1.001 2.195.656 5.394-1.877 2.155-1.707 4.416-3.103 5.024-3.103.608 0 1.106-.45 1.106-1s.81-1 1.8-1 2.335-.535 2.989-1.189c.748-.748 4.809-1.208 10.95-1.242 8.638-.047 10.394.257 15.261 2.644 5.947 2.917 13.81 10.467 15.92 15.287.722 1.65 1.711 3.781 2.197 4.736 1.162 2.284 1.141 19.299-.026 21.528-.501.955-1.578 3.261-2.395 5.124-.863 1.967-17.159 19.169-38.841 41-20.545 20.687-39.155 39.995-41.355 42.908l-4 5.296-3.953-4.796C118.857 167.391 90.763 139 89.621 139c-.53 0-1.768.728-2.751 1.617-1.686 1.527-.883 2.524 14.289 17.75 8.842 8.873 17.308 17.933 18.814 20.133 5.188 7.581 6.11 18.556 2.31 27.5-2.82 6.638-3.683 8.107-7.115 12.117-12.576 14.692-36.533 22.447-53.48 17.311-2.853-.865-5.969-1.99-6.924-2.5-.955-.51-2.2-.928-2.766-.928-1.698 0-12.243-7.216-16.051-10.984C30.402 215.528 25 207.322 25 204.386c0-.762-.374-1.386-.832-1.386-3.267 0-5.282-25.974-2.659-34.289 4.633-14.691 5.445-15.689 45.224-55.608C87.23 92.534 104 75.391 104 75.008c0-.384-.852-1.469-1.894-2.412-1.824-1.651-3.234-.376-38 34.381C44.248 126.83 28 143.308 28 143.595c0 .287-1.293 2.183-2.873 4.214-4.108 5.279-6.63 10.503-9.263 19.191-1.72 5.675-1.685 25.323.056 31.195 4.947 16.689 17.334 31.495 32.08 38.347 1.925.894 4.281 2.038 5.236 2.542.955.504 2.778.916 4.05.916 1.273 0 2.777.463 3.343 1.029 1.432 1.432 23.617 1.338 28.168-.12 15.871-5.084 26.929-12.744 34.703-24.038 4.109-5.97 6.5-7.394 6.5-3.871 0 1.1.42 2 .933 2 .513 0 1.185.787 1.494 1.75.79 2.463 4.248 6.165 10.073 10.785 2.75 2.181 5.225 4.19 5.5 4.465.275.275 2.075 1.367 4 2.426 3.237 1.782 4.484 2.421 9.236 4.73.955.464 2.778.844 4.05.844 1.273 0 2.79.476 3.372 1.058.678.678 5.681.911 13.95.649 15.268-.482 16.646-.748 26.392-5.088 7.412-3.3 17.192-11.859 23.003-20.132 7.895-11.239 9.363-16.603 9.306-33.987-.044-13.255-.828-20.085-2.419-21.068-.49-.303-.89-1.232-.89-2.066 0-2.116-8.087-14.264-11.829-17.768-2.593-2.429-3.349-2.695-4.635-1.628-1.872 1.554-1.928 2.485-.25 4.209C230.038 153.17 237 169.902 237 181.946c0 14.032-6.002 28.056-16.5 38.554-6.104 6.104-10.216 8.834-19 12.614-4.676 2.012-14.359 3.886-20.082 3.886-7.043 0-18.268-3.315-26.354-7.782-14.048-7.761-25.058-24.895-23.829-37.085 1.014-10.064 2.816-12.25 44.364-53.844 35.242-35.28 39.53-39.924 42.784-46.329 3.476-6.842 3.617-7.53 3.617-17.647 0-9.756-.232-11.013-3.168-17.17-3.838-8.048-11.237-15.63-18.835-19.303C194.386 35.128 183 33.669 175 34.638M68.054 54.391c-5.184 1.668-12.288 9.313-13.938 14.999-1.161 4.002-1.169 5.439-.05 8.939C55.538 82.935 59.6 90 60.775 90c.413 0 7.227-6.488 15.142-14.417 15.484-15.512 15.317-15.168 9.062-18.645-6.922-3.848-10.985-4.46-16.925-2.547M174.5 55.412c-2.75 1.264-5.773 3.17-6.719 4.237-1.66 1.874-1.23 2.427 12.687 16.319l14.405 14.379 2.937-3.144c5.058-5.414 6.223-15.213 2.642-22.203-3.085-6.019-12.373-12.073-18.324-11.942-1.445.031-4.878 1.091-7.628 2.354M.395 74.5c.001 7.7.158 10.718.348 6.706.191-4.011.189-10.311-.002-14C.549 63.518.393 66.8.395 74.5m77.07 47.743C56.348 143.527 39.81 161.001 38.89 163a571.513 571.513 0 0 1-2.973 6.352c-.909 1.901-1.335 6.405-1.277 13.5.083 10.241.228 10.923 3.789 17.838 4.395 8.533 10.353 14.234 19.198 18.369 5.702 2.666 7.267 2.941 16.752 2.941 10.046 0 10.745-.144 17.595-3.624 8.61-4.374 15.652-11.274 17.138-16.79 1.135-4.217.342-14.586-1.117-14.586-.473 0-1.17-.975-1.548-2.166C105.666 182.371 76.934 153 75.306 153c-.584 0-1.644.703-2.357 1.562-1.116 1.345.367 3.252 10.694 13.75C96.902 181.79 103 189.051 103 191.359c0 .838.45 1.801 1 2.141 4.178 2.582-5.295 15.248-14.5 19.385-1.65.742-3.781 1.746-4.736 2.232-2.257 1.147-19.271 1.147-21.528 0-.955-.486-3.086-1.475-4.736-2.197-4.815-2.107-12.368-9.969-15.295-15.92-2.404-4.887-2.697-6.589-2.632-15.273.046-6.068.52-10.22 1.25-10.95C42.47 170.13 43 168.79 43 167.8c0-.99.45-1.8 1-1.8s1-.75 1-1.667c0-.918 16.522-18.246 36.715-38.508 36.711-36.837 36.714-36.84 34.715-38.839-1.999-2-2.003-1.997-38.965 35.257m36.272-8.48C106.181 121.333 100 127.946 100 128.46c0 1.579 26.401 27.526 28.014 27.533 1.874.009 27.986-26.003 27.986-27.879 0-1.559-25.978-28.098-27.513-28.108-.558-.003-7.195 6.187-14.75 13.757M58.73 169.144c-3.204 4.244-5.735 10.326-5.713 13.728.026 4.18 5.172 13.339 8.908 15.857 7.638 5.146 17.104 5.205 24.083.15 2.196-1.59 3.992-3.232 3.992-3.648 0-.416-6.466-7.211-14.368-15.1l-14.369-14.342zm122.007 11.619C173.181 188.333 167 194.89 167 195.334c0 2.387 6.726 6.352 12.154 7.166 13.298 1.995 25.476-9.904 23.403-22.867-.872-5.457-4.99-12.633-7.249-12.633-.459 0-7.016 6.193-14.571 13.763M.397 182c0 7.975.156 11.238.346 7.25.189-3.988.189-10.512 0-14.5-.19-3.988-.346-.725-.346 7.25"/><path fill="#1976D2" fill-opacity=".604" fill-rule="evenodd" d="M63.801 1.098c-.202.604-2.5 1.339-5.107 1.633-2.607.294-4.981.925-5.276 1.402-.295.477-1.428.867-2.519.867-2.964 0-13.97 5.414-19.517 9.6-5.984 4.517-16.653 15.619-18.487 19.237-.742 1.465-2.287 4.238-3.434 6.163-1.146 1.925-2.664 5.075-3.373 7-.71 1.925-1.664 4.4-2.12 5.5-.457 1.1-1.114 4.138-1.461 6.75C2.161 61.863 1.455 64 .939 64 .416 64 0 68.435 0 74s.416 10 .939 10c.516 0 1.214 2.137 1.551 4.75.337 2.612 1.039 5.531 1.561 6.486.522.955.949 2.385.949 3.178 0 1.688 5.81 13.066 9.091 17.805 1.25 1.804 4.017 5.212 6.149 7.572l3.877 4.291-4.295 5.209c-2.362 2.865-4.586 5.434-4.942 5.709C13.088 140.383 5 156.272 5 158.409c0 .89-.427 2.4-.949 3.355-.522.955-1.224 3.873-1.561 6.486-.337 2.613-1.035 4.75-1.551 4.75-1.594 0-1.125 17.414.555 20.636.821 1.575 1.496 4.3 1.5 6.055.003 1.755.456 3.469 1.006 3.809.55.34 1 1.407 1 2.372 0 2.447 4.48 11.474 8.973 18.079C29.863 247.314 60.01 259.803 87 254.206c3.025-.627 7.053-1.445 8.952-1.817 3.735-.731 16.718-6.989 18.869-9.095.727-.712 1.627-1.301 2-1.309.374-.009 3.135-2.263 6.136-5.009l5.457-4.993 4.543 4.368c9.79 9.413 22.13 15.425 37.543 18.289 8.247 1.532 29.797.306 31.08-1.769.296-.479 1.643-.871 2.993-.871 1.35 0 3.236-.417 4.191-.927.955-.51 2.411-1.17 3.236-1.468 1.58-.57 8.711-4.779 13.603-8.031 4.523-3.006 12.333-10.679 15.249-14.982 3.652-5.389 8.099-12.788 8.771-14.592.307-.825.905-2.4 1.329-3.5 1.859-4.824 3.049-9.321 3.062-11.571.02-3.687 1.106-6.973 2.1-6.359.493.305.855-3.796.816-9.261-.04-5.527-.4-8.968-.825-7.882-.701 1.788-.804 1.8-1.43.168-.371-.967-.675-3.152-.675-4.856 0-3.088-1.458-8.681-3.123-11.975-.482-.955-.877-2.227-.877-2.826 0-2.155-8.459-15.514-12.684-20.031-2.374-2.538-4.312-5.018-4.307-5.511.005-.493 2.018-3.146 4.473-5.896s4.476-5.305 4.491-5.679c.015-.373.614-1.273 1.332-2 1.588-1.606 8.007-14.954 9.567-19.892.62-1.964 1.128-4.965 1.128-6.668 0-3.886.936-6.419 2.105-5.696.507.313.852-3.915.795-9.756-.061-6.309-.391-9.339-.852-7.809-.691 2.298-.808 2.177-1.445-1.5-.721-4.163-1.197-6.609-2.193-11.25-1.713-7.993-9.979-21.572-18.033-29.627C226.907 15.154 210.73 5 206.299 5c-.729 0-2.108-.427-3.063-.949-.955-.522-3.873-1.224-6.486-1.561-2.613-.337-4.75-1.035-4.75-1.551C192 .42 187.753 0 182.5 0s-9.5.42-9.5.939c0 .516-2.137 1.214-4.75 1.551-2.613.337-5.531 1.039-6.486 1.561-.955.522-2.465.949-3.355.949-3.069 0-16.96 7.637-21.68 11.919-8.707 7.899-8.855 7.934-13.24 3.052C119.029 15.006 101.908 5 97.872 5c-.965 0-1.996-.392-2.292-.871-.296-.479-2.891-1.097-5.767-1.373-2.876-.276-5.397-1.009-5.604-1.629-.509-1.526-19.9-1.553-20.408-.029M64 14.021c-9.566 1.234-14.654 3.407-25.365 10.829-5.366 3.718-9.413 7.548-12.734 12.05C20.691 43.962 16 52.931 16 55.827c0 .975-.524 2.297-1.165 2.938-1.935 1.935-1.532 26.681.532 32.615 3.234 9.298 7.859 17.634 12.567 22.648 4.89 5.209 6.577 5.587 8.83 1.979 1.044-1.673.808-2.428-1.638-5.231C31.599 106.734 25 96.476 25 95.034c0-.583-.406-1.843-.903-2.798-3.134-6.031-3.888-21.536-1.564-32.188 1.487-6.813 7.765-17.451 13.915-23.575 5.933-5.909 17.007-12.374 24.052-14.042 5.378-1.273 23.691-1.64 24.833-.498.587.587 2.018 1.067 3.18 1.067 2.563 0 11.505 4.221 16.982 8.016 2.203 1.527 20.109 18.884 39.791 38.571l35.785 35.796 2.709-2.708 2.708-2.709-37.501-37.233c-20.626-20.478-38.623-38.05-39.994-39.048-2.931-2.134-11.735-6.282-17.459-8.225-4.833-1.641-19.88-2.427-27.534-1.439m108-.348c-2.475.249-4.928.875-5.45 1.39-.522.515-1.523.937-2.223.937-4.105 0-20.438 9.739-25.046 14.934l-2.22 2.502 2.144 2.282c1.179 1.255 2.533 2.282 3.008 2.282.475 0 2.738-1.8 5.027-4 2.29-2.2 4.71-4 5.378-4 .668 0 1.365-.352 1.549-.782.452-1.061 10.615-5.893 14.333-6.815 4.528-1.123 24.501-.935 28.622.27 3.49 1.02 12.851 5.291 13.878 6.332.275.278 2.3 1.831 4.5 3.449 2.2 1.619 4.835 3.866 5.856 4.995 5.223 5.773 11.488 17.172 13.22 24.051.97 3.855.98 21.088.014 25-1.336 5.41-6.595 16.66-8.648 18.5-.307.275-1.318 1.61-2.247 2.968-.928 1.357-18.536 19.357-39.127 40-20.591 20.642-37.918 38.799-38.503 40.347-1.564 4.135-1.298 11.392.562 15.31 1.756 3.702 12.151 13.181 16.623 15.159 1.512.669 3.762 1.657 5 2.197 2.551 1.112 14.728 3.139 15.647 2.605.332-.193 2.944-.629 5.806-.968 6.311-.749 9.087-1.9 16.525-6.85 6.265-4.17 12.512-12.357 15.107-19.799 1.783-5.114 1.756-24.085-.04-27.469-.584-1.1-1.673-3.35-2.419-5-1.779-3.931-7.987-11.5-9.433-11.5-1.315 0-4.444 3.225-4.442 4.579.001.506 1.188 2.271 2.637 3.921 4.842 5.511 8.362 14.732 8.362 21.908 0 7.954-4.164 17.756-10.039 23.631-5.939 5.939-15.401 9.961-23.433 9.961-3.605 0-7.337-.404-8.292-.897-.955-.494-3.756-1.731-6.226-2.75-2.469-1.019-7.082-4.402-10.25-7.517-4.971-4.888-5.76-6.175-5.76-9.393 0-3.57 1.693-5.436 39.76-43.836 21.868-22.059 40.43-41.457 41.248-43.107.819-1.65 1.74-3.225 2.046-3.5.925-.83 5.161-10.259 6.289-14 1.364-4.521 1.371-29.445.01-34-.975-3.262-2.335-6.212-6.917-15-1.004-1.925-5.225-6.878-9.381-11.007-7.56-7.512-15.062-12.126-25.083-15.429-4.811-1.586-20.479-2.645-27.972-1.891M65 33.962c-10.68 2.232-23.368 12.414-27.901 22.389-4.997 10.998-5.133 24.722-.342 34.649 2.54 5.264 8.969 14 10.302 14 .915 0 4.941-3.606 4.941-4.426 0-.38-1.322-2.352-2.938-4.383C43.086 88.682 41 82.959 41 74.072c0-6.763.44-9.02 2.602-13.355 3.499-7.015 9.686-13.271 16.619-16.802C65.139 41.41 67.076 41 74 41c14.06 0 14.932.648 56.018 41.599C149.553 102.069 166.246 118 167.113 118c.868 0 2.416-.927 3.442-2.061 1.851-2.046 1.599-2.325-35.095-38.844C96.554 38.374 94.423 36.626 83 34.06c-5.087-1.143-12.801-1.185-18-.098m108.407.069c-5.764 1.142-12.48 4.484-17.293 8.604-4.614 3.949-4.98 5.271-2.168 7.816 1.866 1.689 2.083 1.666 5.25-.546 1.817-1.27 3.529-2.566 3.804-2.881.275-.315 2.904-1.799 5.842-3.298 7.595-3.875 18.765-3.903 26.97-.067 5.853 2.736 13.829 9.923 15.917 14.341C215.013 64.949 216 68.806 216 74.684c0 12.32-.662 13.175-43.962 56.816-21.283 21.45-39.736 40.731-41.008 42.846l-2.312 3.846-3.572-4.346C119.371 166.82 90.683 138 89.465 138c-.614 0-2.114 1.062-3.333 2.359l-2.216 2.36 3.292 2.974c9.038 8.163 32.652 33.225 34.119 36.211 1.173 2.386 1.673 5.991 1.673 12.062 0 9.532-2.163 15.645-8.269 23.367C111.668 221.207 96.593 232 94.245 232c-.7 0-2.054.41-3.009.912-3.676 1.93-13.013 3.261-19.236 2.741-9.582-.8-14.942-1.75-15.565-2.759-.304-.492-1.346-.894-2.316-.894-1.665 0-14.841-8.496-17.421-11.232-6.229-6.607-12.596-17.417-14.295-24.268-.965-3.888-.965-24.112 0-28 .922-3.718 5.754-13.881 6.815-14.333.43-.184.782-.972.782-1.751 0-.78 16.875-18.337 37.5-39.015C88.125 92.722 105 75.467 105 75.057c0-1.131-3.495-4.057-4.846-4.057-1.711 0-70.968 69.533-75.2 75.5-3.681 5.19-7.643 13.102-10.017 20-1.711 4.974-1.755 30.082-.055 31.782.615.615 1.118 1.964 1.118 2.997 0 1.034 1.688 5.106 3.75 9.05 4.101 7.843 16.203 20.954 22.25 24.106C51.22 239.242 55.119 241 56.561 241c.864 0 2.461.477 3.55 1.059 2.592 1.387 26.853 1.377 28.242-.012.576-.576 1.826-1.047 2.777-1.047 2.467 0 13.647-5.328 18.37-8.754 5.012-3.636 10.298-8.75 13.519-13.08 6.241-8.388 5.503-7.975 7.344-4.106 2.093 4.4 5.847 8.579 12.137 13.516 2.75 2.158 5.15 4.262 5.333 4.674.184.412.789.75 1.346.75s2.207.849 3.667 1.887 6.063 3.063 10.229 4.5c6.506 2.244 9.249 2.613 19.429 2.613 12.874 0 18.035-1.167 27.996-6.331 1.1-.57 3.173-1.63 4.606-2.355 1.434-.724 6.094-4.804 10.356-9.066 5.835-5.835 8.626-9.597 11.302-15.238 4.968-10.468 5.52-12.918 5.967-26.496.31-9.424.023-13.165-1.34-17.499-1.585-5.039-7.042-16.82-8.346-18.015-.3-.275-2.263-2.638-4.362-5.25-2.099-2.613-4.392-4.75-5.095-4.75-1.238 0-4.588 3.081-4.588 4.22 0 .309 1.799 2.739 3.998 5.4 4.602 5.569 9.831 15.598 11.309 21.688 1.231 5.071 1.388 19.672.272 25.192-1.589 7.858-7.757 18.567-14.712 25.544-21.058 21.122-53.715 20.966-76.02-.363-9.246-8.842-13.931-23.362-10.545-32.681 2.863-7.881 6.594-12.08 43.728-49.209 34.504-34.499 39.072-39.436 41.887-45.272 7.969-16.524 4.406-36.625-8.598-48.51-3.014-2.755-6.119-5.009-6.9-5.009-.78 0-1.419-.45-1.419-1s-.81-1-1.8-1-2.228-.402-2.75-.893c-2.692-2.531-15.967-3.678-24.043-2.076M64.617 55.136c-12.458 6.571-15.515 21.827-6.635 33.114 1.19 1.513 2.575 2.75 3.078 2.75.761 0 16.171-15.149 27.361-26.899 2.813-2.954 2.855-3.138 1.153-5.019-5.295-5.851-17.643-7.803-24.957-3.946m109.674-.729c-3.532 1.285-8.291 5.321-8.291 7.03 0 .599 6.555 7.608 14.567 15.576L195.134 91.5l3.183-3.645C201.436 84.283 204 78.033 204 74c0-2.829-2.326-10-3.243-10-.417 0-.757-.635-.757-1.411 0-1.845-5.311-6.274-9.743-8.126-4.073-1.702-11.374-1.728-15.966-.056M.37 74c0 5.775.165 8.138.367 5.25.202-2.888.202-7.612 0-10.5S.37 68.225.37 74m78.231 45.045c-19.409 19.5-36.64 37.48-38.291 39.955-5.206 7.806-6.811 13.465-6.805 24 .004 7.062.453 10.373 1.75 12.904.96 1.872 1.745 4.009 1.745 4.75 0 .74.45 1.346 1 1.346s1 .639 1 1.419c0 2.941 9.843 12.202 16.63 15.647 6.614 3.357 7.04 3.434 19.018 3.434 8.468 0 12.638-.386 13.502-1.25.687-.687 2.06-1.25 3.05-1.25.99 0 1.8-.34 1.8-.756s1.237-1.304 2.75-1.974c3.961-1.755 13.25-11.061 13.25-13.274 0-1.033.45-2.156 1-2.496.55-.34 1-2.815 1-5.5s-.45-5.16-1-5.5c-.55-.34-1-1.491-1-2.559s-.45-1.941-1-1.941-1-.719-1-1.597c0-1.768-29.85-32.369-31.595-32.39-1.491-.018-4.695 3.635-4.258 4.854.194.541 7.119 7.879 15.389 16.308 19.795 20.176 20.934 23.488 11.275 32.781-2.371 2.281-6.336 5.077-8.811 6.215-2.475 1.137-5.281 2.464-6.236 2.948-2.804 1.422-14.193 1.011-18.392-.664-7.254-2.894-8.872-3.907-13.463-8.431C44.027 199.243 41 191.971 41 182.222c0-14.095.803-15.179 41.657-56.265C102.096 106.408 118 89.716 118 88.862c0-.854-.925-2.389-2.055-3.412-2.038-1.844-2.343-1.569-37.344 33.595m34.636-5.782-15.238 15.262 14.263 14.237C120.107 150.593 127.2 157 128.026 157c1.957 0 28.974-27.066 28.974-29.026 0-.825-6.418-7.906-14.262-15.737L128.475 98zM57.915 168.75c-9.627 10.962-4.493 28.927 9.678 33.86 4.599 1.601 11.028 1.811 11.907.39.34-.55 1.417-1 2.392-1 .976 0 3.537-1.545 5.691-3.433l3.917-3.433-14.487-14.567C69.045 172.555 62.032 166 61.428 166c-.603 0-2.184 1.238-3.513 2.75m121.835 11.682c-7.562 7.778-13.75 14.665-13.75 15.304 0 1.589 5.722 5.603 10.071 7.064 7.755 2.606 14.243.833 21.153-5.779 2.772-2.653 4.735-5.426 4.75-6.712.014-1.205.476-2.469 1.026-2.809 1.685-1.042 1.113-8.069-1.071-13.167-2.469-5.759-4.661-8.385-6.834-8.188-.877.08-7.782 6.509-15.345 14.287M.365 182.5c.003 5.5.171 7.622.373 4.716.203-2.905.201-7.405-.004-10-.206-2.594-.371-.216-.369 5.284"/><path fill="#1976D2" fill-opacity=".524" fill-rule="evenodd" d="M68.638 1.5C68.216 2.602 66.477 3 62.09 3c-3.284 0-6.229.415-6.542.923-.314.508-2.014 1.24-3.777 1.627-1.763.387-3.895 1.045-4.738 1.46-.843.416-2.883 1.367-4.533 2.114-10.449 4.727-20.032 13.042-27.649 23.993-4.161 5.981-5.603 8.624-7.712 14.133-.474 1.237-1.599 3.953-2.5 6.034C3.737 55.365 3 59.045 3 61.462c0 2.574-.622 5.017-1.5 5.895-2.096 2.096-2.096 13.2 0 14.005 1.054.404 1.5 2.048 1.5 5.526 0 2.722.633 6.224 1.407 7.781.775 1.557 1.843 3.956 2.374 5.331 3.599 9.315 7.662 16.078 13.719 22.832 5.564 6.205 5.754 5.524-4.509 16.141-1.055 1.091-5.577 8.634-6.76 11.277-1.214 2.713-1.664 3.852-4.238 10.75-.719 1.925-1.505 5.893-1.746 8.818-.274 3.314-.969 5.522-1.844 5.857-2.044.785-1.959 11.897.097 12.687 1.088.417 1.509 2.162 1.532 6.357.019 3.49.613 6.55 1.5 7.722.807 1.068 1.468 2.671 1.468 3.562 0 .892.9 3.484 2 5.761s2 4.611 2 5.188c0 .576.45 1.048 1 1.048s1 .449 1 .998c0 1.553 7.06 11.105 11.17 15.113 4.957 4.833 12.23 9.896 18.33 12.76 2.75 1.291 5.781 2.749 6.736 3.238.955.49 2.462.891 3.349.891s3.083.698 4.88 1.55c4.219 2.002 32.081 1.643 37.535-.484 1.925-.751 4.625-1.8 6-2.332 1.375-.532 3.281-1.365 4.236-1.851.955-.486 2.418-.883 3.25-.883.833 0 1.514-.45 1.514-1s.449-1 .998-1c1.231 0 10.321-6.422 14.85-10.492 1.842-1.654 3.566-2.934 3.831-2.845.266.09 2.359 1.89 4.652 4.001 7.241 6.664 14.609 11.215 23.169 14.313 1.1.398 3.575 1.339 5.5 2.09 5.456 2.13 34.305 2.491 38.538.482 1.795-.852 4.182-1.549 5.304-1.549 1.122 0 2.318-.45 2.658-1 .34-.55 1.491-1 2.559-1s1.941-.45 1.941-1 .664-1 1.476-1c3.745 0 17.819-11.217 24.191-19.28 5.946-7.523 8.333-11.318 8.333-13.244 0-.812.45-1.476 1-1.476s1-.681 1-1.514c0-.832.39-2.295.866-3.25 2.995-6.005 3.588-9.727 3.898-24.444.267-12.699.034-16.281-1.217-18.7-.851-1.646-1.547-3.921-1.547-5.056 0-1.135-.401-2.845-.891-3.8-.489-.955-1.939-3.986-3.22-6.736-2.679-5.746-5.837-10.313-11.067-16-2.023-2.2-3.681-4.45-3.684-5-.002-.55 1.207-2.35 2.687-4 3.814-4.251 10.175-13.317 10.175-14.502 0-.549.45-.998 1-.998s1-.632 1-1.405c0-.774.841-3.136 1.868-5.25 4.464-9.189 5.277-14.133 4.91-29.845-.221-9.486-.851-16.287-1.714-18.5a312.63 312.63 0 0 1-2.087-5.5c-3.24-8.955-9.433-18.721-16.095-25.382C229.356 18.592 220.531 12 218.998 12c-.549 0-.998-.34-.998-.756s-1.463-1.353-3.25-2.084c-6.519-2.663-7.328-2.976-11.783-4.554-2.494-.883-6.67-1.606-9.282-1.606-3.298 0-4.924-.458-5.323-1.5-.813-2.117-10.911-2.117-11.724 0-.422 1.102-2.161 1.5-6.548 1.5-3.284 0-6.229.415-6.542.923-.314.508-2.014 1.24-3.777 1.627-1.763.387-3.895 1.045-4.738 1.46-.843.416-2.883 1.363-4.533 2.105-5.357 2.407-10.896 6.251-16 11.105-2.75 2.615-5.45 4.756-6 4.757-.55.001-2.8-1.684-5-3.745C112.793 11.204 98.046 4.091 86.25 3.266 81.735 2.951 80 2.437 80 1.415 80-.658 69.436-.579 68.638 1.5m-5.766 11.449c-2.546.468-5.554 1.346-6.685 1.951-1.13.605-2.985 1.1-4.121 1.1C50.93 16 50 16.45 50 17s-.606 1-1.346 1c-2.073 0-7.124 2.757-9.147 4.993C38.508 24.097 37.182 25 36.561 25 35.136 25 25 35.194 25 36.626c0 .585-.921 1.898-2.047 2.916-2.317 2.097-4.567 6.79-8.586 17.903-2.535 7.013-2.544 24.863-.015 33.055 4.364 14.138 14.034 28.5 19.189 28.5 3.266 0 5.878-3.348 4.55-5.83-.587-1.097-1.418-2.147-1.847-2.333-1.169-.506-7.633-9.91-9.168-13.337-3.25-7.257-3.877-9.722-4.956-19.5-.656-5.942-.429-8.769 1.402-17.5 1.851-8.827 10.616-22.568 16.857-26.425 1.789-1.106 4.08-2.925 5.092-4.043C46.482 28.915 48.14 28 49.155 28 50.17 28 51 27.55 51 27s.873-1 1.941-1 2.188-.4 2.491-.89c.302-.489 2.016-1.122 3.809-1.406 1.792-.285 4.834-.92 6.759-1.412 4.919-1.256 20.583.31 26.5 2.65 11.088 4.384 14.928 7.701 52.582 45.418C164.103 89.412 180.41 105 181.321 105c1.914 0 5.679-2.961 5.679-4.467C187 99.342 112.9 25 111.713 25c-.438 0-1.782-.918-2.986-2.039-2.425-2.26-9.577-5.726-17.227-8.349-5.774-1.98-21.827-2.912-28.628-1.663M171 13.071c-4.877.905-11.548 3.144-12.648 4.244-.377.377-1.51.685-2.519.685-1.008 0-1.833.45-1.833 1s-.502 1-1.116 1c-1.365 0-10.248 6.446-14.178 10.288-3.019 2.95-2.82 4.089 1.294 7.43 2.103 1.708 2.113 1.705 6.735-2.478 4.185-3.788 13.697-9.285 16.015-9.256.688.009 1.25-.434 1.25-.984s1.155-1 2.566-1c1.411 0 3.49-.495 4.62-1.1 4.414-2.362 20.956-1.196 29.314 2.066 14.354 5.602 25.777 17.027 31.53 31.534 1.365 3.442 2.973 13.632 2.906 18.417-.072 5.128-2.073 15.553-3.202 16.682-.404.404-.734 1.603-.734 2.665 0 4.731-12.059 18.405-46.067 52.236-19.351 19.25-36.176 36.35-37.391 38-3.097 4.21-4.899 10.965-3.58 13.428.571 1.067 1.038 2.935 1.038 4.15 0 4.109 16.951 18.922 21.654 18.922.74 0 1.346.403 1.346.895 0 1.752 18.721 3.784 20.302 2.203.604-.604 2.781-1.098 4.839-1.098 2.058 0 4.019-.45 4.359-1 .34-.55 1.491-1 2.559-1s1.941-.42 1.941-.933c0-.513.872-1.209 1.937-1.547 2.371-.752 11.068-9.027 13.355-12.706 4.372-7.032 5.708-10.141 5.708-13.285 0-1.876.45-3.689 1-4.029.55-.34 1-2.815 1-5.5s-.45-5.16-1-5.5c-.55-.34-1-2.173-1-4.073 0-1.9-.397-4.236-.883-5.191-.486-.955-1.493-3.086-2.238-4.736-1.794-3.973-8.876-12.5-10.383-12.5-1.876 0-5.496 3.563-5.496 5.409 0 .921.948 2.668 2.108 3.883 3.343 3.503 6.892 9.491 6.892 11.629 0 1.079.45 2.239 1 2.579 1.304.806 1.304 15.194 0 16-.55.34-1 1.5-1 2.579 0 2.233-4.133 9.145-7.455 12.466-3.321 3.322-10.233 7.455-12.466 7.455-1.079 0-2.239.45-2.579 1-.34.55-3.94 1-8 1-4.06 0-7.66-.45-8-1-.34-.55-1.44-1-2.445-1-3.037 0-7.043-2.572-13.201-8.477-10.161-9.742-12.258-6.418 32.46-51.445 36.219-36.468 43.453-44.476 46.593-51.578.729-1.65 1.724-3.781 2.21-4.736.486-.955.883-2.553.883-3.55 0-.998.481-2.295 1.068-2.882.588-.588 1.397-4.503 1.798-8.7.828-8.672-.199-22.365-1.798-23.964-.587-.587-1.068-1.884-1.068-2.882 0-.997-.405-2.595-.899-3.55a547.835 547.835 0 0 1-3.216-6.425c-1.274-2.578-3.794-6.399-5.601-8.489-1.806-2.09-3.284-4.095-3.284-4.455C228 30.861 213.522 20 212.181 20c-.65 0-1.181-.45-1.181-1s-.873-1-1.941-1-2.219-.45-2.559-1c-.34-.55-1.626-1-2.859-1s-2.668-.424-3.191-.942c-2.499-2.478-20.326-3.681-29.45-1.987M66.547 32.925c-.366.591-1.9 1.075-3.41 1.075C52.954 34 34 52.862 34 62.996c0 1.432-.489 3.093-1.087 3.691-1.117 1.117-.754 11.773.619 18.14C35.273 92.897 43.638 105 47.475 105c2.28 0 5.525-2.8 5.525-4.767 0-.61-1.368-2.6-3.041-4.421C46.692 92.253 44 87.526 44 85.346c0-.74-.45-1.346-1-1.346-1.249 0-1.351-17.337-.117-19.764.486-.955 1.475-3.086 2.197-4.736 1.879-4.294 9.812-12.353 13.92-14.143 1.925-.839 4.281-1.937 5.236-2.441 2.255-1.189 17.273-1.189 19.528 0 .955.504 3.425 1.65 5.489 2.548 2.463 1.072 16.125 13.988 39.754 37.584C149.257 103.27 165.784 119 166.781 119c2.294 0 6.219-2.752 6.219-4.36 0-.686-16.762-17.913-37.25-38.282-43.255-43.006-43.094-42.89-61.394-44.054-4.498-.286-7.391-.056-7.809.621M175 33c-.825.533-2.724.976-4.22.985-3.142.017-7.696 2.413-15.375 8.085-4.472 3.304-5.255 4.314-4.435 5.721 1.623 2.784 3.7 5.209 4.461 5.209.391 0 3.548-2.025 7.017-4.5 3.468-2.475 7.01-4.5 7.87-4.5.86 0 1.842-.45 2.182-1 1.506-2.437 24.5-.332 24.5 2.243 0 .417.855.757 1.9.757 2.126 0 12.1 10.37 12.1 12.581 0 .78.399 1.419.887 1.419 2.061 0 4.073 20.44 2.196 22.317-.596.596-1.083 1.824-1.083 2.729 0 3.964-4.963 9.476-39.574 43.954-20.152 20.075-38.58 39.086-40.95 42.247l-4.31 5.747-3.833-5.244c-2.108-2.885-10.723-12.166-19.144-20.626l-15.312-15.381-2.938 2.816C85.322 140.107 84 141.81 84 142.342s8.1 9.202 18 19.267c11.504 11.695 18 19.038 18 20.345 0 1.125.45 2.046 1 2.046 1.25 0 1.353 18.333.117 20.764a160.24 160.24 0 0 0-2.25 4.722c-1.347 2.942-2.5 4.509-7.058 9.587-2.84 3.164-12.168 9.927-13.693 9.927-.614 0-1.116.45-1.116 1s-1.05 1-2.333 1c-1.284 0-2.664.33-3.068.734-1.195 1.195-11.686 3.133-17.335 3.202-5.269.064-13.279-1.418-16.5-3.054-.955-.485-2.361-.882-3.124-.882-3.039 0-11.483-5.717-17.64-11.942-6.621-6.695-12.194-16.187-13.54-23.058-1.286-6.567-1.648-23.212-.529-24.331.588-.588 1.069-2.11 1.069-3.383 0-1.272.398-3.095.885-4.05.487-.955 2.175-4.425 3.75-7.71 2.44-5.088 8.32-11.442 39.615-42.806C89.178 92.746 105 76.119 105 75.1c0-1.971-2.974-5.1-4.847-5.1-1.673 0-71.85 70.385-76.408 76.634-2.06 2.824-3.745 5.636-3.745 6.25 0 .614-.45 1.116-1 1.116s-1 1.125-1 2.5-.352 2.5-.782 2.5c-.807 0-3.219 7.306-3.927 11.896-1.321 8.562-1.403 12.727-.4 20.184.617 4.583 1.569 8.78 2.115 9.326.547.547.994 1.758.994 2.692 0 .935 1.38 4.322 3.067 7.529 8.918 16.954 24.148 28.478 43.415 32.851 8.732 1.982 25.672.295 35.018-3.487 1.1-.445 2.693-1.025 3.54-1.288 5.539-1.722 25.96-20.473 25.96-23.838 0-1.793 1.632-.759 3.325 2.109 1.894 3.206 13.663 15.02 14.967 15.024.435.001 1.785.932 3 2.068 1.214 1.136 3.783 2.749 5.708 3.584 1.925.835 4.281 1.93 5.236 2.434.955.504 2.553.916 3.55.916.998 0 2.268.454 2.822 1.008 2.712 2.712 28.749 2.681 33.628-.04.955-.532 2.616-.968 3.691-.968 1.075 0 2.233-.45 2.573-1 .34-.55 1.258-1 2.04-1 3.558 0 18.913-12.276 24.46-19.557 3.955-5.191 7-10.594 7-12.422 0-1.111.45-2.021 1-2.021s1-1.323 1-2.941c0-1.618.398-3.187.885-3.488 1.843-1.139 2.965-19.451 1.69-27.571-.982-6.25-6.699-19.648-9.825-23.026-.963-1.04-1.75-2.268-1.75-2.729 0-.462-1.753-2.551-3.895-4.643-4.337-4.235-6.868-4.281-9.071-.166-1.151 2.151-1.01 2.679 1.34 5.029 1.444 1.444 2.626 3.023 2.626 3.509 0 .486.605 1.488 1.344 2.227 2.503 2.503 6.656 9.749 6.656 11.612 0 1.02.33 2.184.734 2.588.404.404 1.275 3.291 1.936 6.417 5.403 25.553-8.809 50.593-34.17 60.203-9.974 3.78-26.152 3.713-33.736-.139-.955-.485-2.367-.882-3.136-.882-4.835 0-21.452-13.084-23.178-18.25-.322-.963-1.004-1.75-1.517-1.75-.513 0-.933-.81-.933-1.8s-.415-2.228-.923-2.75c-.508-.523-1.491-3.729-2.185-7.125-1.322-6.473-.78-9.924 2.867-18.25.891-2.034 16.981-18.936 39.621-41.621 20.966-21.007 38.795-39.077 39.62-40.154 2.287-2.985 3.952-5.641 4.579-7.3.312-.825.984-2.281 1.494-3.236.51-.955.927-3.291.927-5.191s.45-3.733 1-4.073c.55-.34 1-2.815 1-5.5s-.45-5.16-1-5.5c-.55-.34-1-2.365-1-4.5s-.45-4.16-1-4.5c-.55-.34-1-1.491-1-2.559S220.58 55 220.067 55c-.513 0-1.218-.9-1.567-2s-3.228-4.725-6.396-8.055C206.472 39.026 202.169 36 199.386 36c-.762 0-1.386-.45-1.386-1s-1.548-1-3.441-1c-1.893 0-3.719-.45-4.059-1-.792-1.281-13.518-1.281-15.5 0M65.289 53.421c-4.053 2.245-7.965 6.035-10.641 10.309-4.805 7.677-3.295 18.525 3.624 26.02 1.142 1.237 2.527 2.25 3.077 2.25C62.736 92 92 62.849 92 61.468c0-1.529-3.722-4.841-8.28-7.37-4.312-2.392-14.649-2.772-18.431-.677M175.5 53c-.34.55-1.379 1.013-2.309 1.029-2.315.04-8.395 5.725-8.006 7.485C165.52 63.029 193.87 92 195.018 92c2.056 0 5.098-4.08 9.125-12.236 1.182-2.396 1.08-10.508-.143-11.264-.55-.34-1-1.333-1-2.206 0-2.582-6.403-9.618-10.961-12.044-4.486-2.387-15.33-3.207-16.539-1.25m-97.601 65.75c-19.025 19.113-36.176 37-38.114 39.75-3.34 4.741-4.038 6.386-6.816 16.063-1.579 5.502.059 23.437 2.14 23.437.49 0 .891.684.891 1.52 0 3.96 11.891 17.359 16.784 18.912 1.219.386 2.216 1.122 2.216 1.635 0 .513.873.933 1.941.933s2.19.402 2.494.894c1.215 1.966 16.501 3.04 23.565 1.656 3.557-.698 7.29-2.067 10-3.668.825-.488 2.418-1.289 3.539-1.78 3.155-1.38 13.461-12.284 13.461-14.241 0-.958.45-2.021 1-2.361 1.236-.764 1.32-8.897.117-11.264a162.601 162.601 0 0 1-2.25-4.716c-.752-1.64-8.431-10.117-17.064-18.838l-15.698-15.857-3.052 1.803c-1.679.992-3.053 2.439-3.053 3.217s7.2 8.791 16 17.808c16.635 17.046 16.777 17.266 16.034 24.847-.239 2.441-8.443 11.047-12.438 13.046-1.597.8-3.708 1.454-4.691 1.454-.983 0-2.065.45-2.405 1-.806 1.304-15.194 1.304-16 0-.34-.55-1.941-1-3.559-1S60 212.55 60 212s-.803-1-1.784-1c-2.196 0-11.344-9.401-13.137-13.5-.722-1.65-1.71-3.781-2.196-4.736-1.216-2.391-1.117-19.501.117-20.264.55-.34 1-1.298 1-2.129 0-3.369 7.312-11.44 40.383-44.574C105.586 104.554 119 90.377 119 89.212c0-2.173-2.964-5.212-5.084-5.212-.785 0-16.992 15.637-36.017 34.75m34.81-5.96-15.766 15.79 15.531 15.33c13.874 13.694 15.712 15.184 17.225 13.96 5.797-4.69 28.301-28.311 28.301-29.705 0-.93-6.643-8.322-14.762-16.427L128.476 97zM59 165.895c0 .492-1.117 1.955-2.483 3.25-1.365 1.295-2.49 3.116-2.5 4.046-.009.93-.467 1.969-1.017 2.309-.55.34-1 3.279-1 6.532 0 8.888 5.61 17.756 13 20.547.825.312 2.281.984 3.236 1.494 2.181 1.164 9.224 1.207 11.528.07C87.868 200.142 92 197.074 92 195.056c0-.351-6.591-7.257-14.647-15.347C64.44 166.742 59 162.647 59 165.895m120.5 13.694c-7.7 7.856-14.135 14.932-14.3 15.724-.344 1.657 6.821 7.687 9.135 7.687.851 0 1.825.45 2.165 1 .89 1.441 8.331 1.203 12.979-.415 4.574-1.592 13.521-9.965 13.521-12.654 0-.997.45-2.091 1-2.431 1.583-.978 1.163-9.854-.642-13.596-2.669-5.531-6.337-9.915-8.159-9.751-.934.084-7.999 6.581-15.699 14.436"/></svg>